HIERARCHY
ROOT Hips
{
  OFFSET 5.84602e-005 68.8428 3.50346
  CHANNELS 6 Xposition Yposition Zposition Zrotation Xrotation Yrotation
  JOINT Spine
  {
    OFFSET 0 8.597 -4.6522
    CHANNELS 3 Zrotation Xrotation Yrotation
    JOINT Spine1
    {
      OFFSET 0 7.8454 0.4098
      CHANNELS 3 Zrotation Xrotation Yrotation
      JOINT Spine2
      {
        OFFSET 0 9.7078 -2.1609
        CHANNELS 3 Zrotation Xrotation Yrotation
        JOINT Neck
        {
          OFFSET 0 21.8761 -0.4549
          CHANNELS 3 Zrotation Xrotation Yrotation
          JOINT Head
          {
            OFFSET 0 12.3537 3.3602
            CHANNELS 3 Zrotation Xrotation Yrotation
            End Site
            {
              OFFSET 0.0001 18.9506 0.5657
            }
          }
        }
        JOINT LeftShoulder
        {
          OFFSET 2.2086 21.1115 7.2329
          CHANNELS 3 Zrotation Xrotation Yrotation
          JOINT LeftArm
          {
            OFFSET 13.1193 3.0282 -4.8998
            CHANNELS 3 Zrotation Xrotation Yrotation
            JOINT LeftForeArm
            {
              OFFSET 27.4081 -0.0973053 -0.2375
              CHANNELS 3 Zrotation Xrotation Yrotation
              JOINT LeftHand
              {
                OFFSET 22.8641 0.0662994 -0.1369
                CHANNELS 3 Zrotation Xrotation Yrotation
                JOINT LeftHandIndex1
                {
                  OFFSET 8.8614 0.775009 2.4612
                  CHANNELS 3 Zrotation Xrotation Yrotation
                  JOINT LeftHandIndex2
                  {
                    OFFSET 3.3146 -0.808304 0.5841
                    CHANNELS 3 Zrotation Xrotation Yrotation
                    JOINT LeftHandIndex3
                    {
                      OFFSET 2.2628 -0.552002 0.3989
                      CHANNELS 3 Zrotation Xrotation Yrotation
                      End Site
                      {
                        OFFSET 1.6102 -0.4807 0.2612
                      }
                    }
                  }
                }
                JOINT LeftHandMiddle1
                {
                  OFFSET 8.9937 0.895004 0.2143
                  CHANNELS 3 Zrotation Xrotation Yrotation
                  JOINT LeftHandMiddle2
                  {
                    OFFSET 4.0984 0.0113983 -0.0242
                    CHANNELS 3 Zrotation Xrotation Yrotation
                    JOINT LeftHandMiddle3
                    {
                      OFFSET 2.2716 0.00689697 -0.0138001
                      CHANNELS 3 Zrotation Xrotation Yrotation
                      End Site
                      {
                        OFFSET 2.0404 -0.1441 0.0027
                      }
                    }
                  }
                }
                JOINT LeftHandRing1
                {
                  OFFSET 8.5234 0.597198 -2.0164
                  CHANNELS 3 Zrotation Xrotation Yrotation
                  JOINT LeftHandRing2
                  {
                    OFFSET 3.7188 -0.188293 -0.2328
                    CHANNELS 3 Zrotation Xrotation Yrotation
                    JOINT LeftHandRing3
                    {
                      OFFSET 2.1191 -0.106598 -0.1332
                      CHANNELS 3 Zrotation Xrotation Yrotation
                      End Site
                      {
                        OFFSET 1.8737 -0.2304 -0.0886
                      }
                    }
                  }
                }
                JOINT LeftHandPinky1
                {
                  OFFSET 7.9094 -0.601089 -3.4825
                  CHANNELS 3 Zrotation Xrotation Yrotation
                  JOINT LeftHandPinky2
                  {
                    OFFSET 2.2874 -0.477005 -0.6314
                    CHANNELS 3 Zrotation Xrotation Yrotation
                    JOINT LeftHandPinky3
                    {
                      OFFSET 1.6774 -0.349396 -0.4633
                      CHANNELS 3 Zrotation Xrotation Yrotation
                      End Site
                      {
                        OFFSET 1.4888 -0.4091 -0.3416
                      }
                    }
                  }
                }
                JOINT LeftHandThumb1
                {
                  OFFSET 1.833 -1.3875 1.3896
                  CHANNELS 3 Zrotation Xrotation Yrotation
                  JOINT LeftHandThumb2
                  {
                    OFFSET 3.4129 -1.121 2.5732
                    CHANNELS 3 Zrotation Xrotation Yrotation
                    JOINT LeftHandThumb3
                    {
                      OFFSET 2.2474 -0.804199 1.6192
                      CHANNELS 3 Zrotation Xrotation Yrotation
                      End Site
                      {
                        OFFSET 1.6527 -0.5689 1.1317
                      }
                    }
                  }
                }
              }
            }
          }
        }
        JOINT RightShoulder
        {
          OFFSET -2.2086 21.1115 7.2329
          CHANNELS 3 Zrotation Xrotation Yrotation
          JOINT RightArm
          {
            OFFSET -13.1216 3.0287 -4.9007
            CHANNELS 3 Zrotation Xrotation Yrotation
            JOINT RightForeArm
            {
              OFFSET -27.4081 -0.0973053 -0.2375
              CHANNELS 3 Zrotation Xrotation Yrotation
              JOINT RightHand
              {
                OFFSET -22.8641 0.0664063 -0.1369
                CHANNELS 3 Zrotation Xrotation Yrotation
                JOINT RightHandIndex1
                {
                  OFFSET -8.8614 0.774994 2.4612
                  CHANNELS 3 Zrotation Xrotation Yrotation
                  JOINT RightHandIndex2
                  {
                    OFFSET -3.3146 -0.808304 0.5841
                    CHANNELS 3 Zrotation Xrotation Yrotation
                    JOINT RightHandIndex3
                    {
                      OFFSET -2.2628 -0.552002 0.3989
                      CHANNELS 3 Zrotation Xrotation Yrotation
                      End Site
                      {
                        OFFSET -1.6102 -0.4807 0.2612
                      }
                    }
                  }
                }
                JOINT RightHandMiddle1
                {
                  OFFSET -8.9937 0.894989 0.2143
                  CHANNELS 3 Zrotation Xrotation Yrotation
                  JOINT RightHandMiddle2
                  {
                    OFFSET -4.0984 0.0113983 -0.0242
                    CHANNELS 3 Zrotation Xrotation Yrotation
                    JOINT RightHandMiddle3
                    {
                      OFFSET -2.2716 0.00691223 -0.0138001
                      CHANNELS 3 Zrotation Xrotation Yrotation
                      End Site
                      {
                        OFFSET -2.0404 -0.1441 0.0027
                      }
                    }
                  }
                }
                JOINT RightHandRing1
                {
                  OFFSET -8.5234 0.597198 -2.0164
                  CHANNELS 3 Zrotation Xrotation Yrotation
                  JOINT RightHandRing2
                  {
                    OFFSET -3.7188 -0.188309 -0.2328
                    CHANNELS 3 Zrotation Xrotation Yrotation
                    JOINT RightHandRing3
                    {
                      OFFSET -2.1191 -0.106598 -0.1332
                      CHANNELS 3 Zrotation Xrotation Yrotation
                      End Site
                      {
                        OFFSET -1.8737 -0.2304 -0.0886
                      }
                    }
                  }
                }
                JOINT RightHandPinky1
                {
                  OFFSET -7.9094 -0.601105 -3.4825
                  CHANNELS 3 Zrotation Xrotation Yrotation
                  JOINT RightHandPinky2
                  {
                    OFFSET -2.2874 -0.477005 -0.6314
                    CHANNELS 3 Zrotation Xrotation Yrotation
                    JOINT RightHandPinky3
                    {
                      OFFSET -1.6774 -0.349396 -0.4633
                      CHANNELS 3 Zrotation Xrotation Yrotation
                      End Site
                      {
                        OFFSET -1.4888 -0.4091 -0.3416
                      }
                    }
                  }
                }
                JOINT RightHandThumb1
                {
                  OFFSET -1.833 -1.38751 1.3896
                  CHANNELS 3 Zrotation Xrotation Yrotation
                  JOINT RightHandThumb2
                  {
                    OFFSET -3.41299 -1.12099 2.5732
                    CHANNELS 3 Zrotation Xrotation Yrotation
                    JOINT RightHandThumb3
                    {
                      OFFSET -2.24741 -0.804108 1.6192
                      CHANNELS 3 Zrotation Xrotation Yrotation
                      End Site
                      {
                        OFFSET -1.6527 -0.5689 1.1317
                      }
                    }
                  }
                }
              }
            }
          }
        }
      }
    }
  }
  JOINT RightUpLeg
  {
    OFFSET -9.1966 3.8861 -0.7581
    CHANNELS 3 Zrotation Xrotation Yrotation
    JOINT RightLeg
    {
      OFFSET -0.7359 -41.0265 0
      CHANNELS 3 Zrotation Xrotation Yrotation
      JOINT RightFoot
      {
        OFFSET 0 -40.2855 0
        CHANNELS 3 Zrotation Xrotation Yrotation
        JOINT RightToeBase
        {
          OFFSET 0 -5.6122 11.7359
          CHANNELS 3 Zrotation Xrotation Yrotation
          End Site
          {
            OFFSET 0 0 7.8731
          }
        }
      }
    }
  }
  JOINT LeftUpLeg
  {
    OFFSET 9.1965 3.8864 -0.7581
    CHANNELS 3 Zrotation Xrotation Yrotation
    JOINT LeftLeg
    {
      OFFSET 0.7359 -41.0268 0
      CHANNELS 3 Zrotation Xrotation Yrotation
      JOINT LeftFoot
      {
        OFFSET 0 -40.2855 0
        CHANNELS 3 Zrotation Xrotation Yrotation
        JOINT LeftToeBase
        {
          OFFSET 0 -5.6122 11.7359
          CHANNELS 3 Zrotation Xrotation Yrotation
          End Site
          {
            OFFSET 0 0 7.8731
          }
        }
      }
    }
  }
}
MOTION
Frames:	7
Frame Time:	0.0333333
5.84602e-005 68.8428 3.50346 0 0 -0 0 0 -0 0 0 -0 0 0 -0 0 0 -0 0 0 -0 0 0 -0 0 0 -0 0 0 -0 0 0 -0 0 0 -0 0 0 -0 0 0 -0 0 0 -0 -0.0146107 -8.87603e-005 -2.63497e-007 2.99804e-018 -2.42657e-020 -1.42182e-022 0 0 -0 -0.0187562 -0.001176 5.858e-005 5.06224e-018 3.88251e-019 1.21329e-020 0 0 -0 -0.012269 -0.00324817 0.000675346 -1.74678e-018 3.88251e-019 -0 0 0 -0 0 0 -0 0 0 -0 0 0 -0 0 0 -0 0 0 -0 0 0 -0 0 0 -0 0 0 -0 0 0 -0 0 0 -0 0.0149955 -9.10982e-005 2.64101e-007 -9.69331e-018 1.21329e-020 -4.7394e-023 0 0 -0 0.0189956 -0.00119102 -5.96516e-005 -5.41541e-019 0 2.42657e-020 0 0 -0 0.0122698 -0.00324857 -0.000673756 -2.00796e-019 0 -1.94126e-019 0 0 -0 0 0 -0 0 0 -0 3.39842 1.33031 -0.0637918 -5.65207e-008 0.834868 -0.000436188 -3.39935 -2.16518 -0.0642563 -8.89002e-024 -1.18485e-023 -1.48106e-024 -3.39844 1.35642 0.0640283 -3.18788e-007 0.782166 -0.000588827 3.39931 -2.13858 0.0634662 1.1399e-023 0 -0 
-0.0608393 1.89214 6.2993 -180 -89.9981 -180 -0.11204 8.50988 -0.123997 -0.208732 17.02 -0.234907 -0.208732 17.02 -0.234907 5.78537e-006 17.9989 -3.27684e-006 -4.73647e-008 8.99856 6.08177e-009 -19.6866 -1.26714 2.83134 -75.7568 -4.99278 -22.7783 5.38311 45.0726 -45.3385 -42.8348 17.5852 21.0083 -3.58176e-007 1.9278e-007 1.27467e-007 -1.79088e-006 9.639e-007 6.37334e-007 -3.58176e-007 1.9278e-007 1.27467e-007 -3.58176e-007 1.9278e-007 1.27467e-007 -0.0145835 -8.51171e-005 -8.07986e-007 -3.58173e-007 1.92764e-007 1.27492e-007 -3.58176e-007 1.9278e-007 1.27467e-007 -0.0187613 -0.00117437 6.46047e-005 -3.5817e-007 1.9276e-007 1.27502e-007 -3.58176e-007 1.9278e-007 1.27467e-007 -0.0122883 -0.00324648 0.000673174 -8.66905e-007 1.19448e-006 -2.46184e-006 -3.58176e-007 1.9278e-007 1.27467e-007 -1.79088e-006 9.639e-007 6.37334e-007 -3.58176e-007 1.9278e-007 1.27467e-007 -0.60742 0.43324 -8.61063 77.1126 0.63402 -30.2949 -33.0795 8.3212 77.4736 7.08676 23.5989 -0.220574 1.59028e-015 -3.42904e-015 -1.59028e-015 7.95139e-016 -3.03147e-015 -1.59028e-015 2.38542e-015 4.96962e-016 3.18055e-015 1.59028e-015 -3.42904e-015 -1.59028e-015 0.014986 -8.91982e-005 -4.24091e-007 -1.86753e-007 -1.43107e-007 -9.37118e-007 1.59028e-015 -3.42904e-015 -1.59028e-015 0.018992 -0.00119212 -6.45774e-005 -1.86415e-007 -1.43235e-007 -9.37116e-007 1.59028e-015 -3.42904e-015 -1.59028e-015 0.0122855 -0.00325072 -0.000680677 3.97569e-016 1.48592e-014 -3.18055e-015 1.59028e-015 -3.42904e-015 -1.59028e-015 7.95139e-016 -3.03147e-015 -1.59028e-015 2.38542e-015 4.96962e-016 3.18055e-015 -34.3541 -31.5377 -24.0555 -82.778 80.8525 79.4998 -8.38973 14.7711 -1.79289 -1.22661e-006 1.14205e-006 6.66939e-006 24.7089 3.01441 1.21979 -1.99526 6.62729 0.891397 9.34851 13.3726 0.575159 3.18055e-015 3.18055e-015 -0 
-0.0608393 1.89214 6.2993 -180 -89.9981 -180 -0.112747 8.60973 -0.123383 -0.210118 17.2197 -0.23343 -0.210118 17.2197 -0.23343 5.17198e-007 17.452 -3.16337e-007 -2.65188e-008 8.91287 -1.44924e-008 -19.1104 -1.78876 3.12763 -76.1053 -4.79464 -22.5747 5.30045 45.1516 -46.2037 -43.1158 17.0953 21.6899 -1.7885e-006 9.66261e-007 6.39943e-007 -6.36111e-015 -1.59028e-015 -3.18055e-015 3.577e-007 -1.93252e-007 -1.27989e-007 -1.7885e-006 9.66261e-007 6.39943e-007 -0.014618 -9.0322e-005 -9.50527e-007 3.57696e-007 -1.93236e-007 -1.28014e-007 -1.7885e-006 9.66261e-007 6.39943e-007 -0.0187517 -0.00117391 5.5019e-005 3.57694e-007 -1.93232e-007 -1.28024e-007 -1.7885e-006 9.66261e-007 6.39943e-007 -0.0122717 -0.00324402 0.000674293 3.57692e-007 -1.93241e-007 -1.28019e-007 -1.7885e-006 9.66261e-007 6.39943e-007 -6.36111e-015 -1.59028e-015 -3.18055e-015 3.577e-007 -1.93252e-007 -1.27989e-007 -0.60742 0.433247 -8.61063 77.1126 0.634023 -30.2949 -33.0795 8.32121 77.4736 6.88281 23.4878 -0.104204 3.60133e-006 -8.09487e-007 -9.17738e-007 2.3227e-006 2.34574e-007 -6.17425e-007 2.3227e-006 2.34574e-007 -6.17425e-007 3.60133e-006 -8.09487e-007 -9.17738e-007 0.0149977 -8.92268e-005 9.60509e-007 2.32269e-006 2.34493e-007 -6.17458e-007 3.60133e-006 -8.09487e-007 -9.17738e-007 0.0190076 -0.00119074 -5.19705e-005 2.32269e-006 2.34473e-007 -6.17488e-007 3.60133e-006 -8.09487e-007 -9.17738e-007 0.0122983 -0.00325714 -0.000684475 2.32267e-006 2.34522e-007 -6.17516e-007 3.60133e-006 -8.09487e-007 -9.17738e-007 2.3227e-006 2.34574e-007 -6.17425e-007 2.3227e-006 2.34574e-007 -6.17425e-007 -34.3541 -31.5377 -24.0555 -82.778 80.8525 79.4998 -8.38973 14.7711 -1.7929 -1.48238e-006 1.80837e-006 4.46124e-006 24.7089 3.01441 1.21979 -1.99526 6.6273 0.891388 9.3485 13.3726 0.575162 -3.18055e-015 0 3.18055e-015 
-0.0608393 1.89214 6.2993 -180 -89.9981 -180 -0.113456 8.70961 -0.122766 -0.211511 17.4195 -0.231942 -0.211511 17.4195 -0.231942 2.70971e-006 16.9037 -1.89057e-006 1.91676e-008 8.82715 -5.20713e-008 -18.5309 -2.30781 3.4295 -76.4545 -4.5977 -22.3699 5.2193 45.2316 -47.0709 -43.3902 16.6018 22.3677 3.57221e-007 -1.93733e-007 -1.28495e-007 -3.57221e-007 1.93733e-007 1.28495e-007 3.57221e-007 -1.93733e-007 -1.28495e-007 3.57221e-007 -1.93733e-007 -1.28495e-007 -0.0146163 -8.91716e-005 -3.41102e-006 3.57218e-007 -1.93717e-007 -1.2852e-007 3.57221e-007 -1.93733e-007 -1.28495e-007 -0.0187523 -0.0011764 5.23386e-005 3.57216e-007 -1.93712e-007 -1.2853e-007 3.57221e-007 -1.93733e-007 -1.28495e-007 -0.0122796 -0.00325032 0.00067923 3.57213e-007 -1.93722e-007 -1.28526e-007 3.57221e-007 -1.93733e-007 -1.28495e-007 -3.57221e-007 1.93733e-007 1.28495e-007 3.57221e-007 -1.93733e-007 -1.28495e-007 -0.60742 0.433255 -8.61063 77.1126 0.634029 -30.2949 -33.0795 8.32119 77.4736 6.67925 23.3765 0.0116719 3.33802e-031 -6.01324e-015 3.18055e-015 1.98785e-015 -6.21202e-015 -0 7.95139e-016 -6.5102e-015 3.18055e-015 3.33802e-031 -6.01324e-015 3.18055e-015 0.0149791 -8.98885e-005 1.04329e-005 -7.95139e-016 1.04362e-014 1.59028e-015 3.33802e-031 -6.01324e-015 3.18055e-015 0.0190007 -0.00119243 -6.50262e-005 1.19271e-015 -9.93923e-017 -1.59028e-015 3.33802e-031 -6.01324e-015 3.18055e-015 0.0122578 -0.00324562 -0.00067032 1.29658e-031 -2.33572e-015 3.18055e-015 3.33802e-031 -6.01324e-015 3.18055e-015 1.98785e-015 -6.21202e-015 -0 7.95139e-016 -6.5102e-015 3.18055e-015 -34.3541 -31.5377 -24.0555 -82.778 80.8525 79.4998 -8.38973 14.7711 -1.7929 -1.48238e-006 1.80837e-006 4.46124e-006 24.7089 3.01441 1.21979 -1.99526 6.6273 0.891388 9.3485 13.3726 0.575162 -3.18055e-015 0 3.18055e-015 
-0.0608393 1.89214 6.2993 -180 -89.9981 -180 -0.114166 8.80952 -0.122144 -0.212911 17.6193 -0.230443 -0.212911 17.6192 -0.230443 3.28818e-006 16.3548 -2.05553e-006 -9.65806e-008 8.74144 2.00796e-007 -17.948 -2.82415 3.73696 -76.8043 -4.40195 -22.1639 5.1397 45.3126 -47.9399 -43.6579 16.1048 23.0419 3.56739e-007 -1.94223e-007 -1.28986e-007 6.36111e-015 -3.18055e-015 3.18055e-015 3.56739e-007 -1.94223e-007 -1.28986e-007 3.56739e-007 -1.94223e-007 -1.28986e-007 -0.0146099 -8.87589e-005 -4.3814e-006 3.56736e-007 -1.94206e-007 -1.29011e-007 3.56739e-007 -1.94223e-007 -1.28986e-007 -0.0187718 -0.00117147 4.90398e-005 3.56734e-007 -1.94202e-007 -1.29021e-007 3.56739e-007 -1.94223e-007 -1.28986e-007 -0.012271 -0.00324549 0.000685196 9.44953e-007 1.07333e-006 -5.75824e-007 3.56739e-007 -1.94223e-007 -1.28986e-007 6.36111e-015 -3.18055e-015 3.18055e-015 3.56739e-007 -1.94223e-007 -1.28986e-007 -0.607421 0.433256 -8.61063 77.1126 0.634018 -30.2949 -33.0795 8.32121 77.4736 6.47609 23.2647 0.126994 -3.60258e-006 7.99812e-007 9.1434e-007 2.4063e-007 -2.32151e-006 2.86298e-008 -2.47641e-006 -1.14519e-007 -9.28605e-006 -3.60258e-006 7.99812e-007 9.1434e-007 0.0149794 -9.31191e-005 -2.82752e-007 -2.47655e-006 -1.15732e-007 -9.28604e-006 -3.60258e-006 7.99812e-007 9.1434e-007 0.019015 -0.00118988 -5.83751e-005 -2.36754e-006 1.78938e-007 -1.27519e-005 -3.60258e-006 7.99812e-007 9.1434e-007 0.0122717 -0.00325082 -0.000675271 -2.47678e-006 -1.15501e-007 -9.28596e-006 -3.60258e-006 7.99812e-007 9.1434e-007 2.4063e-007 -2.32151e-006 2.86298e-008 -2.47641e-006 -1.14519e-007 -9.28605e-006 -34.3541 -31.5377 -24.0555 -82.778 80.8525 79.4998 -8.38973 14.7711 -1.7929 -1.48238e-006 1.80837e-006 4.46124e-006 24.7089 3.01441 1.21979 -1.99526 6.6273 0.891388 9.3485 13.3726 0.575162 -3.18055e-015 0 3.18055e-015 
-0.0608393 1.89214 6.2993 -180 -89.9981 -180 -0.114876 8.90946 -0.121519 -0.214317 17.8191 -0.228934 -0.214317 17.8191 -0.228933 5.79983e-006 15.805 -3.24513e-006 3.44942e-008 8.6557 -7.48316e-008 -17.3617 -3.33765 4.05001 -77.1549 -4.20741 -21.9566 5.06168 45.3944 -48.8108 -43.9192 15.6046 23.7123 3.56255e-007 -1.9472e-007 -1.29462e-007 3.56255e-007 -1.9472e-007 -1.29462e-007 3.56255e-007 -1.9472e-007 -1.29462e-007 3.56255e-007 -1.9472e-007 -1.29462e-007 -0.0146304 -8.8363e-005 -6.43315e-006 3.56252e-007 -1.94704e-007 -1.29487e-007 3.56255e-007 -1.9472e-007 -1.29462e-007 -0.018762 -0.00117718 5.40645e-005 3.5625e-007 -1.947e-007 -1.29497e-007 3.56255e-007 -1.9472e-007 -1.29462e-007 -0.0122706 -0.00324902 0.000677246 3.56248e-007 -1.94709e-007 -1.29493e-007 3.56255e-007 -1.9472e-007 -1.29462e-007 3.56255e-007 -1.9472e-007 -1.29462e-007 3.56255e-007 -1.9472e-007 -1.29462e-007 -0.607421 0.433253 -8.61064 77.1126 0.634037 -30.2949 -33.0795 8.32122 77.4736 6.27336 23.1525 0.24182 1.39149e-015 -3.926e-015 -0 7.95139e-016 2.48481e-015 -1.59028e-015 7.95139e-016 -5.96354e-016 3.18055e-015 1.39149e-015 -3.926e-015 -0 0.0149832 -9.22903e-005 -5.44145e-006 -1.57245e-031 2.83268e-015 3.18055e-015 1.39149e-015 -3.926e-015 -0 0.0189933 -0.00118938 -5.54203e-005 7.95139e-016 4.96962e-017 3.18055e-015 1.39149e-015 -3.926e-015 -0 0.0122518 -0.00324531 -0.000676131 3.97569e-016 5.91384e-015 3.18055e-015 1.39149e-015 -3.926e-015 -0 7.95139e-016 2.48481e-015 -1.59028e-015 7.95139e-016 -5.96354e-016 3.18055e-015 -34.3541 -31.5377 -24.0555 -82.778 80.8525 79.4998 -8.38973 14.7711 -1.7929 -1.48238e-006 1.80837e-006 4.46124e-006 24.7089 3.01441 1.21979 -1.99526 6.6273 0.891388 9.3485 13.3726 0.575162 -3.18055e-015 0 3.18055e-015 
-0.0608393 1.89214 6.2993 -180 -89.9981 -180 -0.115588 9.00941 -0.120891 -0.21573 18.019 -0.227413 -0.21573 18.019 -0.227413 2.66163e-006 15.2541 -1.80119e-006 3.00688e-008 8.56996 1.25777e-007 -16.772 -3.84818 4.36865 -77.5061 -4.01412 -21.7482 4.98526 45.4771 -49.6833 -44.1738 15.1013 24.3792 3.55769e-007 -1.95227e-007 -1.29923e-007 -2.18811e-007 7.90324e-007 -2.62182e-006 3.55769e-007 -1.95227e-007 -1.29923e-007 3.55769e-007 -1.95227e-007 -1.29923e-007 -0.0146156 -8.78201e-005 -7.57296e-006 3.55765e-007 -1.9521e-007 -1.29948e-007 3.55769e-007 -1.95227e-007 -1.29923e-007 -0.018769 -0.00117528 6.14632e-005 3.55763e-007 -1.95206e-007 -1.29959e-007 3.55769e-007 -1.95227e-007 -1.29923e-007 -0.012255 -0.00324967 0.000678719 3.55761e-007 -1.95216e-007 -1.29954e-007 3.55769e-007 -1.95227e-007 -1.29923e-007 -2.18811e-007 7.90324e-007 -2.62182e-006 3.55769e-007 -1.95227e-007 -1.29923e-007 -0.60742 0.433273 -8.61064 77.1126 0.634016 -30.2949 -33.0795 8.32121 77.4736 6.07102 23.04 0.356075 -2.3591e-006 -1.22976e-007 -3.81649e-006 -2.65193e-006 1.91095e-006 -4.47118e-007 -2.3591e-006 -1.22976e-007 -3.81649e-006 -2.3591e-006 -1.22976e-007 -3.81649e-006 0.0150331 -9.26955e-005 -3.7265e-006 -2.40389e-006 -4.09378e-007 -4.06612e-007 -2.3591e-006 -1.22976e-007 -3.81649e-006 0.0190053 -0.00119719 -6.73203e-005 -2.36003e-006 -1.23554e-007 -3.81644e-006 -2.3591e-006 -1.22976e-007 -3.81649e-006 0.0122909 -0.0032539 -0.000683971 -3.31267e-006 -1.24373e-006 -2.4582e-006 -2.3591e-006 -1.22976e-007 -3.81649e-006 -2.65193e-006 1.91095e-006 -4.47118e-007 -2.3591e-006 -1.22976e-007 -3.81649e-006 -34.3541 -31.5377 -24.0555 -82.778 80.8525 79.4998 -8.38973 14.7711 -1.7929 -1.48238e-006 1.80837e-006 4.46124e-006 24.7089 3.01441 1.21979 -1.99526 6.6273 0.891388 9.3485 13.3726 0.575162 -3.18055e-015 0 3.18055e-015 
